<svg id="visual" viewBox="0 0 960 540" width="960" height="540" xmlns="http://www.w3.org/2000/svg" xmlns:xlink="http://www.w3.org/1999/xlink" version="1.1"><rect x="0" y="0" width="960" height="540" fill="#ffffff"></rect><defs><linearGradient id="grad1_0" x1="43.8%" y1="100%" x2="100%" y2="0%"><stop offset="14.444444444444446%" stop-color="#0066ff" stop-opacity="1"></stop><stop offset="85.55555555555554%" stop-color="#0066ff" stop-opacity="1"></stop></linearGradient></defs><defs><linearGradient id="grad1_1" x1="43.8%" y1="100%" x2="100%" y2="0%"><stop offset="14.444444444444446%" stop-color="#0066ff" stop-opacity="1"></stop><stop offset="85.55555555555554%" stop-color="#acafff" stop-opacity="1"></stop></linearGradient></defs><defs><linearGradient id="grad1_2" x1="43.8%" y1="100%" x2="100%" y2="0%"><stop offset="14.444444444444446%" stop-color="#ffffff" stop-opacity="1"></stop><stop offset="85.55555555555554%" stop-color="#acafff" stop-opacity="1"></stop></linearGradient></defs><defs><linearGradient id="grad2_0" x1="0%" y1="100%" x2="56.3%" y2="0%"><stop offset="14.444444444444446%" stop-color="#0066ff" stop-opacity="1"></stop><stop offset="85.55555555555554%" stop-color="#0066ff" stop-opacity="1"></stop></linearGradient></defs><defs><linearGradient id="grad2_1" x1="0%" y1="100%" x2="56.3%" y2="0%"><stop offset="14.444444444444446%" stop-color="#acafff" stop-opacity="1"></stop><stop offset="85.55555555555554%" stop-color="#0066ff" stop-opacity="1"></stop></linearGradient></defs><defs><linearGradient id="grad2_2" x1="0%" y1="100%" x2="56.3%" y2="0%"><stop offset="14.444444444444446%" stop-color="#acafff" stop-opacity="1"></stop><stop offset="85.55555555555554%" stop-color="#ffffff" stop-opacity="1"></stop></linearGradient></defs><g transform="translate(960, 540)"><path d="M-243 0C-240.9 -33.3 -238.8 -66.6 -224.5 -93C-210.2 -119.4 -183.7 -138.9 -160.5 -160.5C-137.3 -182.1 -117.3 -205.8 -91.1 -219.9C-64.9 -234 -32.4 -238.5 0 -243L0 0Z" fill="#d7d6ff"></path><path d="M-162 0C-160.6 -22.2 -159.2 -44.4 -149.7 -62C-140.1 -79.6 -122.5 -92.6 -107 -107C-91.5 -121.4 -78.2 -137.2 -60.7 -146.6C-43.2 -156 -21.6 -159 0 -162L0 0Z" fill="#7789ff"></path><path d="M-81 0C-80.3 -11.1 -79.6 -22.2 -74.8 -31C-70.1 -39.8 -61.2 -46.3 -53.5 -53.5C-45.8 -60.7 -39.1 -68.6 -30.4 -73.3C-21.6 -78 -10.8 -79.5 0 -81L0 0Z" fill="#0066ff"></path></g><g transform="translate(0, 0)"><path d="M243 0C234.2 31.1 225.5 62.2 210.6 87.3C195.8 112.3 174.9 131.4 155.6 155.6C136.3 179.8 118.6 209.1 93 224.5C67.3 239.9 33.7 241.5 0 243L0 0Z" fill="#d7d6ff"></path><path d="M162 0C156.2 20.7 150.3 41.5 140.4 58.2C130.5 74.9 116.6 87.6 103.7 103.7C90.9 119.8 79.1 139.4 62 149.7C44.9 160 22.4 161 0 162L0 0Z" fill="#7789ff"></path><path d="M81 0C78.1 10.4 75.2 20.7 70.2 29.1C65.3 37.4 58.3 43.8 51.9 51.9C45.4 59.9 39.5 69.7 31 74.8C22.4 80 11.2 80.5 0 81L0 0Z" fill="#0066ff"></path></g></svg>