<svg id="visual" viewBox="0 0 600 900" width="600" height="900" xmlns="http://www.w3.org/2000/svg" xmlns:xlink="http://www.w3.org/1999/xlink" version="1.1"><rect x="0" y="0" width="600" height="900" fill="#ffffff"></rect><defs><linearGradient id="grad1_0" x1="0%" y1="100%" x2="100%" y2="0%"><stop offset="30%" stop-color="#0066ff" stop-opacity="1"></stop><stop offset="70%" stop-color="#0066ff" stop-opacity="1"></stop></linearGradient></defs><defs><linearGradient id="grad1_1" x1="0%" y1="100%" x2="100%" y2="0%"><stop offset="30%" stop-color="#0066ff" stop-opacity="1"></stop><stop offset="70%" stop-color="#acafff" stop-opacity="1"></stop></linearGradient></defs><defs><linearGradient id="grad1_2" x1="0%" y1="100%" x2="100%" y2="0%"><stop offset="30%" stop-color="#ffffff" stop-opacity="1"></stop><stop offset="70%" stop-color="#acafff" stop-opacity="1"></stop></linearGradient></defs><defs><linearGradient id="grad2_0" x1="0%" y1="100%" x2="100%" y2="0%"><stop offset="30%" stop-color="#0066ff" stop-opacity="1"></stop><stop offset="70%" stop-color="#0066ff" stop-opacity="1"></stop></linearGradient></defs><defs><linearGradient id="grad2_1" x1="0%" y1="100%" x2="100%" y2="0%"><stop offset="30%" stop-color="#acafff" stop-opacity="1"></stop><stop offset="70%" stop-color="#0066ff" stop-opacity="1"></stop></linearGradient></defs><defs><linearGradient id="grad2_2" x1="0%" y1="100%" x2="100%" y2="0%"><stop offset="30%" stop-color="#acafff" stop-opacity="1"></stop><stop offset="70%" stop-color="#ffffff" stop-opacity="1"></stop></linearGradient></defs><g transform="translate(600, 900)"><path d="M-243.4 0C-229.9 -27.4 -216.4 -54.8 -206.9 -85.7C-197.5 -116.7 -192 -151.2 -172.1 -172.1C-152.2 -193 -117.9 -200.1 -86.9 -209.7C-55.8 -219.3 -27.9 -231.3 0 -243.4L0 0Z" fill="#d7d6ff"></path><path d="M-162.2 0C-153.3 -18.3 -144.3 -36.5 -138 -57.1C-131.6 -77.8 -128 -100.8 -114.7 -114.7C-101.5 -128.6 -78.6 -133.4 -57.9 -139.8C-37.2 -146.2 -18.6 -154.2 0 -162.2L0 0Z" fill="#7789ff"></path><path d="M-81.1 0C-76.6 -9.1 -72.1 -18.3 -69 -28.6C-65.8 -38.9 -64 -50.4 -57.4 -57.4C-50.7 -64.3 -39.3 -66.7 -29 -69.9C-18.6 -73.1 -9.3 -77.1 0 -81.1L0 0Z" fill="#0066ff"></path></g><g transform="translate(0, 0)"><path d="M243.4 0C240.3 32.2 237.3 64.3 224.8 93.1C212.4 121.9 190.6 147.4 166.2 166.2C141.7 184.9 114.6 197 86.5 208.8C58.4 220.6 29.2 232 0 243.4L0 0Z" fill="#d7d6ff"></path><path d="M162.2 0C160.2 21.4 158.2 42.9 149.9 62.1C141.6 81.3 127.1 98.3 110.8 110.8C94.5 123.3 76.4 131.4 57.7 139.2C38.9 147 19.5 154.6 0 162.2L0 0Z" fill="#7789ff"></path><path d="M81.1 0C80.1 10.7 79.1 21.4 74.9 31C70.8 40.6 63.5 49.1 55.4 55.4C47.2 61.6 38.2 65.7 28.8 69.6C19.5 73.5 9.7 77.3 0 81.1L0 0Z" fill="#0066ff"></path></g></svg>