<svg id="visual" viewBox="0 0 960 540" width="960" height="540" xmlns="http://www.w3.org/2000/svg" xmlns:xlink="http://www.w3.org/1999/xlink" version="1.1"><rect x="0" y="0" width="960" height="540" fill="#ffffff"></rect><defs><linearGradient id="grad1_0" x1="43.8%" y1="100%" x2="100%" y2="0%"><stop offset="14.444444444444446%" stop-color="#0066ff" stop-opacity="1"></stop><stop offset="85.55555555555554%" stop-color="#0066ff" stop-opacity="1"></stop></linearGradient></defs><defs><linearGradient id="grad1_1" x1="43.8%" y1="100%" x2="100%" y2="0%"><stop offset="14.444444444444446%" stop-color="#0066ff" stop-opacity="1"></stop><stop offset="85.55555555555554%" stop-color="#acafff" stop-opacity="1"></stop></linearGradient></defs><defs><linearGradient id="grad1_2" x1="43.8%" y1="100%" x2="100%" y2="0%"><stop offset="14.444444444444446%" stop-color="#ffffff" stop-opacity="1"></stop><stop offset="85.55555555555554%" stop-color="#acafff" stop-opacity="1"></stop></linearGradient></defs><defs><linearGradient id="grad2_0" x1="0%" y1="100%" x2="56.3%" y2="0%"><stop offset="14.444444444444446%" stop-color="#0066ff" stop-opacity="1"></stop><stop offset="85.55555555555554%" stop-color="#0066ff" stop-opacity="1"></stop></linearGradient></defs><defs><linearGradient id="grad2_1" x1="0%" y1="100%" x2="56.3%" y2="0%"><stop offset="14.444444444444446%" stop-color="#acafff" stop-opacity="1"></stop><stop offset="85.55555555555554%" stop-color="#0066ff" stop-opacity="1"></stop></linearGradient></defs><defs><linearGradient id="grad2_2" x1="0%" y1="100%" x2="56.3%" y2="0%"><stop offset="14.444444444444446%" stop-color="#acafff" stop-opacity="1"></stop><stop offset="85.55555555555554%" stop-color="#ffffff" stop-opacity="1"></stop></linearGradient></defs><g transform="translate(960, 540)"><path d="M-270 0C-270 -39.3 -270 -78.6 -249.4 -103.3C-228.9 -128 -187.8 -138 -161.9 -161.9C-136.1 -185.8 -125.5 -223.6 -101 -243.9C-76.6 -264.2 -38.3 -267.1 0 -270L0 0Z" fill="#d7d6ff"></path><path d="M-180 0C-180 -26.2 -180 -52.4 -166.3 -68.9C-152.6 -85.3 -125.2 -92 -108 -108C-90.7 -123.9 -83.6 -149.1 -67.4 -162.6C-51.1 -176.2 -25.5 -178.1 0 -180L0 0Z" fill="#7789ff"></path><path d="M-90 0C-90 -13.1 -90 -26.2 -83.1 -34.4C-76.3 -42.7 -62.6 -46 -54 -54C-45.4 -61.9 -41.8 -74.5 -33.7 -81.3C-25.5 -88.1 -12.8 -89 0 -90L0 0Z" fill="#0066ff"></path></g><g transform="translate(0, 0)"><path d="M270 0C268.5 37.8 267.1 75.6 249.4 103.3C231.8 131.1 198.1 148.9 171.8 171.8C145.6 194.8 126.9 223 99.5 240.2C72.1 257.4 36.1 263.7 0 270L0 0Z" fill="#d7d6ff"></path><path d="M180 0C179 25.2 178 50.4 166.3 68.9C154.6 87.4 132 99.2 114.6 114.6C97.1 129.9 84.6 148.7 66.3 160.1C48.1 171.6 24 175.8 0 180L0 0Z" fill="#7789ff"></path><path d="M90 0C89.5 12.6 89 25.2 83.1 34.4C77.3 43.7 66 49.6 57.3 57.3C48.5 64.9 42.3 74.3 33.2 80.1C24 85.8 12 87.9 0 90L0 0Z" fill="#0066ff"></path></g></svg>